<svg width="440" height="449" viewBox="0 0 440 449" fill="none" xmlns="http://www.w3.org/2000/svg">
<g clip-path="url(#clip0_2357_60745)">
<path d="M235.932 135.91C266.735 135.91 293.815 151.649 309.555 175.511L332.234 160.618C310.909 128.633 275.367 109.51 236.947 109.51C173.987 109.51 122.536 160.788 122.536 223.912C122.536 287.036 173.818 338.144 236.947 338.144C275.367 338.144 310.909 319.021 332.234 287.036L309.724 272.143C293.984 296.005 266.904 311.744 236.101 311.744C187.527 311.744 148.092 272.312 148.092 223.742C147.754 175.342 187.189 135.91 235.932 135.91Z" fill="#FFBF00"/>
<path d="M237.624 390.437C146.061 390.437 71.423 315.975 71.423 224.25C71.423 132.695 145.892 58.0627 237.624 58.0627C293.307 58.0627 345.097 85.817 375.9 132.187L382.162 141.664L332.572 174.326L326.31 164.849C306.339 134.387 272.489 116.279 236.27 116.279C176.864 116.279 128.459 164.68 128.459 224.081C128.459 283.482 176.864 331.883 236.27 331.883C272.659 331.883 306.339 313.775 326.31 283.313L332.572 273.835L382.162 306.498L375.9 315.975C344.927 362.683 293.307 390.437 237.624 390.437Z" fill="#1A629D"/>
<path d="M385.885 322.744C352.712 372.668 297.199 402.453 237.455 402.453C139.291 402.453 59.406 322.575 59.406 224.419C59.406 126.264 139.291 46.3856 237.455 46.3856C297.199 46.3856 352.712 76.1707 385.885 126.095L392.147 135.572L439.875 104.263L433.613 94.7863C389.778 27.7699 315.986 -12 236.27 -12C105.949 -12 0 93.9402 0 224.25C0 354.56 105.949 460.5 236.27 460.5C315.986 460.5 389.778 420.73 433.613 354.052L439.875 344.575L392.147 313.267L385.885 322.744Z" fill="#1A629D"/>
</g>
<defs>
<clipPath id="clip0_2357_60745">
<rect width="439.875" height="472.5" fill="white" transform="translate(0 -12)"/>
</clipPath>
</defs>
</svg>
