<svg width="123" height="56" viewBox="0 0 123 56" fill="none" xmlns="http://www.w3.org/2000/svg">
<g clip-path="url(#clip0_2210_32511)">
<path d="M67.7587 5.97754C64.9281 5.97754 62.8936 7.99952 62.8936 10.7248C62.8936 13.4501 64.8396 15.472 67.7587 15.472C69.351 15.472 70.7663 14.7687 71.5624 13.6259L70.324 12.7468C69.7048 13.538 68.8202 13.9775 67.7587 13.9775C65.8127 13.9775 64.4858 12.6589 64.4858 10.6369C64.4858 8.70281 65.9011 7.29622 67.7587 7.29622C68.8202 7.29622 69.7048 7.82369 70.324 8.6149L71.5624 7.82369C70.8548 6.76875 69.351 5.97754 67.7587 5.97754Z" fill="#005092"/>
<path d="M75.7202 10.1976C76.8702 10.1976 77.6663 11.0767 77.6663 12.2196C77.6663 13.3624 76.8702 14.2415 75.7202 14.2415C74.5703 14.2415 73.7741 13.3624 73.7741 12.2196C73.7741 11.0767 74.5703 10.1976 75.7202 10.1976ZM78.9047 9.05473H77.4894V9.84594C77.0471 9.23055 76.4279 8.87891 75.5433 8.87891C73.7741 8.87891 72.4473 10.2855 72.4473 12.2196C72.4473 14.1536 73.8626 15.4723 75.5433 15.4723C76.4279 15.4723 77.0471 15.1207 77.4894 14.5932V15.2965H78.9047V9.05473Z" fill="#005092"/>
<path d="M98.4535 9.05473H96.9498L95.0037 12.6591L92.9691 9.05473H91.4654L94.296 14.0657L91.9961 17.9339H93.4999L98.4535 9.05473ZM88.1924 10.1097C89.077 10.1097 89.6077 10.7251 89.7847 11.6921H86.5117C86.6886 10.7251 87.2194 10.1097 88.1924 10.1097ZM88.1924 8.87891C86.3348 8.87891 85.0964 10.2855 85.0964 12.2196C85.0964 14.1536 86.4233 15.4723 88.3693 15.4723C89.3424 15.4723 90.1385 15.2965 90.9346 14.5932L90.227 13.6262C89.6962 14.0657 88.9885 14.3295 88.3693 14.3295C87.4848 14.3295 86.6886 13.8899 86.5117 12.6591H91.2C91.2 12.4833 91.2 12.3075 91.2 12.2196C91.2 10.2855 89.9616 8.87891 88.1924 8.87891ZM83.6811 8.87891C82.8849 8.87891 82.2657 9.23055 81.8235 9.75803V9.05473H80.4966V15.2965H81.8235V11.8679C81.8235 10.813 82.4427 10.1976 83.3272 10.1976C83.6811 10.1976 84.0349 10.2855 84.3003 10.3734L84.6541 9.05473C84.4772 8.96682 84.1234 8.87891 83.6811 8.87891Z" fill="#005092"/>
<path d="M107.299 21.5389H104.911V19.6048H103.496V21.5389H102.257V22.7696H103.496V25.5828C103.496 27.2531 104.38 28.0444 105.796 28.0444C106.503 28.0444 107.211 27.6927 107.742 27.429L107.211 26.2861C106.857 26.5498 106.326 26.7257 105.973 26.7257C105.353 26.7257 105 26.374 105 25.5828V22.8575H107.388V21.5389H107.299ZM101.55 22.0663C100.842 21.6268 99.9574 21.4509 98.9844 21.4509C97.3922 21.4509 96.4191 22.1542 96.4191 23.4729C96.4191 24.44 97.1268 25.1433 98.6306 25.3191L99.2498 25.407C99.9574 25.4949 100.4 25.7586 100.4 26.1103C100.4 26.5498 99.869 26.9015 98.9844 26.9015C97.9229 26.9015 97.3037 26.5498 96.9499 26.2861L96.2422 27.2531C97.2153 27.9564 98.2767 28.0444 98.9844 28.0444C100.842 28.0444 101.815 27.1652 101.815 26.0224C101.815 24.8795 101.019 24.352 99.6036 24.1762L98.9844 24.0883C98.3652 24.0004 97.9229 23.9125 97.9229 23.4729C97.9229 23.0334 98.3652 22.6817 99.1613 22.6817C99.869 22.6817 100.665 23.0334 101.107 23.2971L101.55 22.0663ZM94.1192 18.374C93.5885 18.374 93.1462 18.8136 93.1462 19.3411C93.1462 19.8685 93.5885 20.3081 94.1192 20.3081C94.65 20.3081 95.0923 19.8685 95.0923 19.3411C95.0923 18.9015 94.65 18.374 94.1192 18.374ZM94.8269 27.7806V21.5389H93.4116V27.7806H94.8269ZM92.1731 21.5389H89.6963V19.6048H88.281V21.5389H87.0426V22.7696H88.281V25.5828C88.281 27.2531 89.1656 28.0444 90.5809 28.0444C91.377 28.0444 91.9962 27.6927 92.527 27.429L91.9962 26.2861C91.6424 26.5498 91.1117 26.7257 90.7578 26.7257C90.2271 26.7257 89.7848 26.374 89.7848 25.5828V22.8575H92.2616V21.5389H92.1731ZM83.2389 22.6817C84.3888 22.6817 85.185 23.5608 85.185 24.7037C85.185 25.8466 84.4773 26.7257 83.2389 26.7257C82.0889 26.7257 81.2928 25.8466 81.2928 24.7037C81.2928 23.5608 82.0889 22.6817 83.2389 22.6817ZM83.4158 21.4509C82.5312 21.4509 81.912 21.8026 81.4697 22.3301V21.6268H80.0544V30.5059H81.3813V27.1652C81.8236 27.7806 82.4428 28.1323 83.3274 28.1323C85.0965 28.1323 86.4234 26.7257 86.4234 24.7916C86.4234 22.8575 85.0965 21.4509 83.4158 21.4509ZM75.0123 22.6817C76.1623 22.6817 76.9584 23.5608 76.9584 24.7037C76.9584 25.8466 76.2507 26.7257 75.0123 26.7257C73.7739 26.7257 73.1547 25.8466 73.1547 24.7037C73.1547 23.5608 73.8624 22.6817 75.0123 22.6817ZM78.1968 21.5389H76.8699V22.2422C76.4276 21.7147 75.72 21.363 74.8354 21.363C73.0662 21.363 71.7394 22.7696 71.7394 24.6158C71.7394 26.4619 73.1547 27.9564 74.8354 27.9564C75.72 27.9564 76.3392 27.6048 76.8699 26.9894V27.6927H78.1968V21.5389ZM66.9626 20.0444C68.0241 20.0444 68.9087 20.2202 68.9087 21.2751C68.9087 22.418 68.0241 22.5059 66.9626 22.5059H64.9281V20.0444H66.9626ZM67.1396 23.9125C68.2895 23.9125 69.0856 24.0883 69.0856 25.1433C69.0856 26.1982 68.2895 26.374 67.1396 26.374H64.9281V23.8246H67.1396V23.9125ZM63.4243 18.6378V27.7806H67.228C69.351 27.7806 70.6779 27.0773 70.6779 25.2312C70.6779 24.1762 69.9702 23.385 69.0856 23.1213C69.8817 22.9455 70.501 22.1542 70.501 21.1872C70.501 19.429 68.9972 18.7257 67.0511 18.7257H63.4243V18.6378Z" fill="#005092"/>
<path d="M121.895 33.8464C121.099 33.8464 120.48 34.1101 120.037 34.7255V34.0222H118.711V40.264H120.126V36.8354C120.126 35.6926 120.745 35.1651 121.63 35.1651C121.983 35.1651 122.337 35.253 122.603 35.3409L122.956 33.9343C122.691 33.9343 122.337 33.8464 121.895 33.8464ZM113.668 35.1651C114.818 35.1651 115.614 36.0442 115.614 37.1871C115.614 38.3299 114.907 39.209 113.668 39.209C112.43 39.209 111.722 38.242 111.722 37.1871C111.811 36.0442 112.518 35.1651 113.668 35.1651ZM116.853 34.0222H115.438V34.8134C114.995 34.1981 114.376 33.8464 113.491 33.8464C111.722 33.8464 110.395 35.253 110.395 37.1871C110.395 39.1211 111.811 40.4398 113.491 40.4398C114.376 40.4398 114.995 40.0882 115.438 39.5607V40.264H116.853V34.0222ZM106.503 33.8464C105.707 33.8464 104.734 34.0222 104.203 34.9893C103.761 34.286 103.053 33.8464 101.992 33.8464C101.373 33.8464 100.577 34.0222 100.046 34.8134V34.0222H98.6306V40.264H100.046V36.7475C100.046 35.6926 100.754 35.0772 101.727 35.0772C102.7 35.0772 103.23 35.6926 103.23 36.7475V40.264H104.646V36.7475C104.646 35.6926 105.353 35.0772 106.238 35.0772C107.211 35.0772 107.742 35.6926 107.742 36.7475V40.264H109.157V36.3079C109.069 34.9014 108.007 33.8464 106.503 33.8464ZM94.3846 33.8464C93.5885 33.8464 92.6154 34.0222 92.0847 34.9893C91.6424 34.286 90.8463 33.8464 89.8732 33.8464C89.1656 33.8464 88.4579 34.0222 87.9272 34.8134V34.0222H86.5118V40.264H87.9272V36.7475C87.9272 35.6926 88.6348 35.0772 89.6079 35.0772C90.5809 35.0772 91.1116 35.6926 91.1116 36.7475V40.264H92.527V36.7475C92.527 35.6926 93.2346 35.0772 94.1192 35.0772C95.0922 35.0772 95.623 35.6926 95.623 36.7475V40.264H97.0383V36.3079C96.9499 34.9014 95.8884 33.8464 94.3846 33.8464ZM81.6466 35.1651C82.7966 35.1651 83.5927 36.0442 83.5927 37.1871C83.5927 38.3299 82.7966 39.209 81.6466 39.209C80.4967 39.209 79.7006 38.242 79.7006 37.1871C79.7006 36.0442 80.4967 35.1651 81.6466 35.1651ZM84.8311 34.0222H83.4158V34.8134C82.9735 34.1981 82.3543 33.8464 81.4697 33.8464C79.7006 33.8464 78.2852 35.253 78.2852 37.1871C78.2852 39.1211 79.7006 40.4398 81.4697 40.4398C82.3543 40.4398 82.9735 40.0882 83.4158 39.5607V40.264H84.8311V34.0222ZM76.8699 33.8464C76.0738 33.8464 75.4546 34.1101 75.0123 34.7255V34.0222H73.6854V40.264H75.1008V36.8354C75.1008 35.6926 75.72 35.1651 76.6045 35.1651C76.9584 35.1651 77.3122 35.253 77.666 35.3409L78.0199 33.9343C77.666 33.9343 77.3122 33.8464 76.8699 33.8464ZM67.7587 30.9453C64.9281 30.9453 62.8936 32.9673 62.8936 35.6926C62.8936 38.7695 65.2819 40.4398 67.5818 40.4398C70.4125 40.4398 72.1816 38.242 72.1816 35.6047C72.1816 35.5167 72.0932 35.3409 72.0932 35.253H68.1126V36.6596H70.5894C70.4125 38.1541 69.351 39.0332 67.6703 39.0332C65.9011 39.0332 64.4858 37.7145 64.4858 35.6926C64.4858 33.7585 65.9011 32.3519 67.7587 32.3519C68.7318 32.3519 69.6164 32.7915 70.2356 33.4948L71.3855 32.4398C70.5009 31.5607 69.1741 30.9453 67.7587 30.9453Z" fill="#005092"/>
<path d="M102.7 52.7474V43.3408H101.284V52.7474H102.7ZM96.5076 47.6485C97.6575 47.6485 98.4536 48.5276 98.4536 49.6705C98.4536 50.8133 97.5691 51.6925 96.5076 51.6925C95.3576 51.6925 94.5615 50.8133 94.5615 49.6705C94.5615 48.4397 95.4461 47.6485 96.5076 47.6485ZM96.5076 46.3298C94.5615 46.3298 93.1462 47.7364 93.1462 49.6705C93.1462 51.5166 94.5615 52.9232 96.5076 52.9232C98.4536 52.9232 99.869 51.5166 99.869 49.6705C99.9574 47.7364 98.5421 46.3298 96.5076 46.3298ZM88.8117 47.6485C89.9617 47.6485 90.7578 48.5276 90.7578 49.6705C90.7578 50.8133 89.8732 51.6925 88.8117 51.6925C87.6618 51.6925 86.8657 50.8133 86.8657 49.6705C86.8657 48.4397 87.7502 47.6485 88.8117 47.6485ZM88.8117 46.3298C86.8657 46.3298 85.4503 47.7364 85.4503 49.6705C85.4503 51.5166 86.8657 52.9232 88.8117 52.9232C90.7578 52.9232 92.1731 51.5166 92.1731 49.6705C92.2616 47.7364 90.8463 46.3298 88.8117 46.3298ZM79.7006 43.3408H78.2852V52.7474H79.7006V49.2309C79.7006 48.176 80.4082 47.5606 81.3813 47.5606C82.3543 47.5606 82.885 48.176 82.885 49.2309V52.7474H84.3004V48.8793C84.3004 47.3848 83.2389 46.3298 81.7351 46.3298C81.1159 46.3298 80.3198 46.5057 79.789 47.2969V43.3408H79.7006ZM74.7469 46.3298C72.8008 46.3298 71.474 47.7364 71.474 49.6705C71.474 51.5166 72.8008 52.9232 74.7469 52.9232C75.72 52.9232 76.5161 52.5716 77.1353 51.9562L76.2507 51.0771C75.8084 51.4287 75.2777 51.6925 74.7469 51.6925C73.6854 51.6925 72.8893 50.8133 72.8893 49.6705C72.8893 48.5276 73.6854 47.6485 74.7469 47.6485C75.3661 47.6485 75.8084 47.8243 76.2507 48.2639L77.1353 47.2969C76.5161 46.6815 75.72 46.3298 74.7469 46.3298ZM70.2356 44.4837C69.351 43.8683 68.2895 43.5166 66.8742 43.5166C64.9281 43.5166 63.2474 44.4837 63.2474 46.3298C63.2474 48.0002 64.6627 48.6155 65.9896 48.8793L66.6972 48.9672C68.0241 49.143 68.7318 49.4947 68.7318 50.198C68.7318 51.0771 67.7587 51.6046 66.5203 51.6046C65.4588 51.6046 64.3089 51.165 63.6897 50.6375L62.8936 51.7804C63.8666 52.6595 65.3704 53.0111 66.6088 53.0111C68.5549 53.0111 70.2356 52.0441 70.2356 50.198C70.2356 48.5276 68.7318 47.9122 67.228 47.6485L66.6088 47.5606C65.4588 47.3848 64.6627 47.121 64.6627 46.3298C64.6627 45.4507 65.5473 44.9232 66.6972 44.9232C67.6703 44.9232 68.4664 45.2749 69.2625 45.7144L70.2356 44.4837Z" fill="#005092"/>
<path d="M56.4362 28.044C56.4362 12.5714 43.7867 0 28.2181 0C12.6495 0 0 12.5714 0 28.044C0 43.5165 12.6495 56.0879 28.2181 56.0879C43.7867 56 56.4362 43.5165 56.4362 28.044Z" fill="#005092"/>
<path d="M51.6595 28.9233C52.1018 28.9233 52.5441 28.5716 52.5441 28.0442C52.5441 27.6046 52.1018 27.165 51.6595 27.165C51.1287 27.165 50.7749 27.6046 50.7749 28.0442C50.7749 28.5716 51.1287 28.9233 51.6595 28.9233Z" fill="#FFCC00"/>
<path d="M4.86515 28.9233C5.30743 28.9233 5.74972 28.5716 5.74972 28.0442C5.74972 27.6046 5.30743 27.165 4.86515 27.165C4.3344 27.165 3.98057 27.6046 3.98057 28.0442C3.89211 28.5716 4.3344 28.9233 4.86515 28.9233Z" fill="#FFCC00"/>
<path d="M11.4996 46.5937L11.0573 46.0662L11.4112 45.3629L10.4381 44.308L9.642 44.6596L9.19971 44.1322L12.5611 42.7256L13.1803 43.341L11.4996 46.5937ZM10.9689 44.0443L11.6765 44.7476L12.2957 43.5168L10.9689 44.0443Z" fill="#FFCC00"/>
<path d="M14.5955 48.879L14.0647 48.5274V45.7142L12.6494 47.5603L12.1187 47.1208L14.1532 44.3955L14.6839 44.7472V47.6483L16.0108 45.8021L16.63 46.2417" fill="#FFCC00"/>
<path d="M16.2764 49.9344L15.7456 49.4948L17.3378 46.5938L17.9571 46.9454" fill="#FFCC00"/>
<path d="M20.8761 51.8683L20.2569 51.6045L21.23 49.2309L19.6377 51.0771L18.9301 50.8133L19.0185 48.4397L18.1339 50.8133L17.4263 50.5496L18.6647 47.3848L19.5493 47.7364V50.1979L21.23 48.3518L22.1145 48.7034" fill="#FFCC00"/>
<path d="M25.9185 51.1652C25.7415 52.1322 24.9454 52.7476 23.8839 52.5718C22.9109 52.396 22.2917 51.5168 22.4686 50.5498C22.6455 49.5828 23.4416 48.9674 24.5031 49.1432C25.5646 49.319 26.0954 50.1982 25.9185 51.1652ZM23.1763 50.7256C23.0878 51.341 23.4416 51.8685 24.0608 51.9564C24.68 52.0443 25.2108 51.6927 25.2993 51.0773C25.3877 50.374 25.0339 49.9344 24.4147 49.8465C23.7955 49.6707 23.2647 50.0223 23.1763 50.7256Z" fill="#FFCC00"/>
<path d="M30.9605 52.7479L28.3952 52.9237L28.2183 49.5831L30.6951 49.4072L30.7835 50.0226L28.9259 50.1105L29.0144 50.9017L30.6951 50.8138V51.3413L29.0144 51.5171V52.3083L30.872 52.1325" fill="#FFCC00"/>
<path d="M34.2335 49.4064L33.172 49.5822L33.7912 52.3075L33.0835 52.3954L32.5528 49.758L31.4913 49.9339L31.4028 49.3185L34.0566 48.791" fill="#FFCC00"/>
<path d="M38.8332 49.0551L37.2409 49.7584L37.8601 50.9892L37.2409 51.2529L35.9141 48.176L38.1255 47.209L38.3909 47.7365L36.7102 48.4398L37.064 49.1431L38.5678 48.5277" fill="#FFCC00"/>
<path d="M40.9562 49.407L40.4254 49.7586L38.6562 46.8575L39.2755 46.5059" fill="#FFCC00"/>
<path d="M41.2212 45.2749C42.1058 44.6596 42.9904 44.7475 43.6096 45.5387C44.2288 46.4178 44.0519 47.2969 43.2558 48.0002L42.1058 48.8793L40.0713 46.1541L41.2212 45.2749ZM40.9559 46.242L42.1943 47.9123L42.8135 47.4727C43.4327 47.0332 43.4327 46.5057 42.9904 45.9782C42.6366 45.5387 42.1058 45.3629 41.4866 45.8024L40.9559 46.242Z" fill="#FFCC00"/>
<path d="M47.1483 44.3951L45.3791 46.1534L42.9907 43.8676L44.6714 42.0215L45.2022 42.461L43.8753 43.7797L44.4061 44.2193L45.6445 43.0764L46.0868 43.4281L44.8483 44.6588L45.4676 45.2742L46.706 43.9556" fill="#FFCC00"/>
<path d="M28.3067 2.19824C29.6336 2.19824 30.2528 2.81363 30.2528 3.86857C30.2528 4.74769 29.6336 5.27516 28.5721 5.36308C29.1913 6.06637 29.7221 6.76967 30.2528 7.56088C29.8105 7.56088 29.3682 7.56088 28.9259 7.47297C28.3952 6.76967 27.8645 6.06637 27.4222 5.36308C27.3337 5.36308 27.2452 5.36308 27.0683 5.36308V7.56088C26.7145 7.56088 26.3607 7.56088 26.0068 7.56088V2.28615C26.8914 2.19824 27.5991 2.19824 28.3067 2.19824ZM27.1568 3.25319V4.57187C27.5106 4.48396 27.9529 4.48396 28.3067 4.48396C28.9259 4.48396 29.1913 4.30813 29.1913 3.86857C29.1913 3.42901 28.8375 3.25319 28.3067 3.25319C27.9529 3.25319 27.5106 3.25319 27.1568 3.25319Z" fill="#FFCC00"/>
<path d="M37.1523 9.49473L33.3486 8.08814L35.2062 3.07715L38.9215 4.48374L38.6561 5.36286L35.9139 4.39583L35.4716 5.45077L38.1254 6.41781L37.7715 7.29693L35.1178 6.41781L34.6755 7.56067L37.5062 8.5277" fill="#FFCC00"/>
<path d="M14.065 7.73586L13.7112 8.7029C13.1804 8.52707 12.6497 8.61499 12.2074 9.05455C11.4997 9.66993 11.4112 10.7249 12.0305 11.5161C12.7381 12.3952 13.7112 12.3952 14.5073 11.7798C14.9496 11.4282 15.1265 10.9007 15.1265 10.2853L16.2764 10.1974C16.3649 11.0765 16.0111 11.8677 15.3034 12.4831C14.065 13.5381 12.3843 13.3622 11.3228 12.1315C10.3498 10.9007 10.4382 9.23037 11.6766 8.17542C12.2958 7.56004 13.1804 7.38422 14.065 7.73586Z" fill="#FFCC00"/>
<path d="M23.7951 8.00008L22.7336 8.35172L21.849 7.38469L19.726 8.1759V9.49458L18.6646 9.84623L18.753 4.13194L19.9914 3.69238L23.7951 8.00008ZM19.726 7.12095L21.1414 6.59348L19.726 4.92315V7.12095Z" fill="#FFCC00"/>
<path d="M42.9903 10.9015L41.6634 12.4839L40.7788 11.8685L42.1941 10.1982L42.6364 6.41797L43.6095 7.20918L43.1672 9.84654L45.7325 8.87951L46.617 9.67072" fill="#FFCC00"/>
<path d="M46.9713 28.0436C46.9713 17.8458 38.5678 9.49414 28.3067 9.49414C18.0456 9.49414 9.64209 17.7579 9.64209 28.0436C9.64209 38.2414 17.9571 46.593 28.3067 46.593C38.5678 46.593 46.9713 38.2414 46.9713 28.0436Z" fill="#FFCC00"/>
<path d="M44.3174 21.0113C41.5752 14.8575 35.4716 10.6377 28.3065 10.6377C21.1414 10.6377 14.9494 14.9454 12.2956 21.0113C15.3032 23.7366 10.1726 27.5168 11.3226 32.2641C13.6225 41.5828 21.7606 39.385 28.3065 45.2751C34.8524 39.385 42.9905 41.5828 45.2904 32.2641C46.5288 27.5168 41.3098 23.6487 44.3174 21.0113Z" fill="black"/>
<path d="M24.8569 21.8027C24.7684 21.8906 23.9723 21.7148 22.8223 21.8027C22.0262 21.6269 21.0532 21.0994 20.7878 21.0994C20.434 21.0115 19.1071 20.484 19.0187 20.3961C19.0187 20.2203 18.9302 20.0445 18.9302 19.8687C18.8417 19.7807 18.7533 19.6928 18.5764 19.3412C18.4879 19.2533 18.3995 19.2533 18.3995 19.2533C18.311 19.1654 18.3995 18.4621 18.4879 17.8467C18.311 17.9346 17.6918 18.1983 17.338 18.1983C17.338 18.1983 17.338 18.1983 17.338 18.2862C17.4264 18.4621 17.6918 18.7258 17.6918 18.9895C17.6918 19.0775 17.6033 19.0775 17.6033 19.0775C17.4264 18.7258 17.161 18.4621 17.0726 18.3742C16.8957 18.4621 16.8072 18.4621 16.7188 18.4621C17.2495 18.9016 17.6033 19.3412 17.7802 19.6928C17.6918 19.6928 17.5149 19.6928 17.5149 19.6928C17.4264 19.6928 17.2495 19.7807 17.2495 19.8687C17.2495 19.9566 17.2495 19.9566 17.338 20.0445C17.2495 20.1324 17.161 20.1324 17.2495 20.2203C17.2495 20.3082 17.338 20.3961 17.4264 20.3961V20.484C17.4264 20.572 17.4264 20.6599 17.5149 20.6599C17.6033 20.7478 17.6918 20.7478 17.6918 20.7478C17.6918 20.7478 17.7802 20.8357 17.7802 20.9236C17.8687 21.0115 18.0456 21.0115 18.1341 21.0115C18.2225 20.9236 18.2225 20.9236 18.311 20.8357C18.311 20.7478 18.2225 20.6599 18.2225 20.6599C18.311 20.572 18.311 20.3961 18.1341 20.3082C18.0456 20.3082 18.0456 20.3082 18.0456 20.2203H18.1341C18.311 20.2203 18.311 20.0445 18.311 19.9566C18.311 19.8687 18.2225 19.8687 18.2225 19.8687C18.2225 19.8687 18.1341 19.8687 18.1341 19.7807C18.1341 19.7807 18.2225 19.7807 18.2225 19.6928C18.311 19.6928 18.311 19.6049 18.311 19.517C18.311 19.4291 18.311 19.4291 18.311 19.4291C18.311 19.3412 18.311 19.3412 18.311 19.3412C18.3995 19.3412 18.3995 19.3412 18.3995 19.3412C18.3995 19.3412 18.4879 19.3412 18.4879 19.4291C18.5764 19.517 18.5764 19.7807 18.6648 20.0445C18.7533 20.2203 18.7533 20.8357 18.4879 21.0115C18.5764 21.0994 19.0187 22.6818 19.1071 23.0335C19.1956 23.4731 19.6379 23.2972 19.5494 22.9456C19.4609 22.7698 19.1071 21.3632 18.9302 21.0115L19.0187 20.9236C19.8148 21.3632 19.9917 21.6269 21.0532 22.0665C21.407 22.2423 21.7609 22.4181 22.0262 22.506C22.0262 22.8577 22.0262 22.8577 22.1147 22.8577C22.8223 22.9456 23.2646 23.0335 23.9723 23.1214C24.7684 23.2093 24.9453 23.0335 25.7415 23.2093C25.8299 23.2093 25.8299 23.2093 25.8299 23.1214C25.7415 23.0335 25.653 22.7698 25.3876 22.506C25.3876 22.506 25.2992 22.506 25.2992 22.4181C25.3876 22.3302 25.3876 22.3302 25.3876 22.3302C26.0068 22.506 26.2722 22.8577 26.3607 23.0335C26.3607 22.9456 26.4491 22.0665 26.7145 21.539V21.4511C25.5645 21.6269 25.0338 21.8027 24.8569 21.8027Z" fill="#FFCC00"/>
<path d="M22.7336 15.1205C23.6182 14.7689 25.122 15.2085 26.095 13.4502C26.095 13.3623 26.0065 13.3623 26.0065 13.3623C25.0335 14.0656 23.972 13.714 23.4413 13.8019C22.7336 13.9777 21.849 14.681 21.1414 15.0326C20.5222 15.3843 19.726 15.2964 19.726 15.2964C19.726 15.2964 20.4337 14.8568 20.4337 14.3293C20.4337 14.2414 20.3452 14.2414 20.3452 14.3293C19.4607 15.2964 16.5416 15.2964 17.0723 17.0546C17.4261 15.7359 19.2837 16.703 20.9644 16.4392C21.6721 16.3513 22.1144 15.8238 22.9105 15.7359C22.999 15.7359 22.999 15.648 22.999 15.648C22.9105 15.4722 22.5567 15.4722 22.3798 15.4722C22.3798 15.4722 22.4682 15.2085 22.7336 15.1205ZM21.7606 15.9118C21.849 15.9118 21.849 15.9997 21.7606 15.9997C21.0529 16.3513 20.6106 16.0876 20.2568 15.9997C19.9914 15.9118 19.6376 15.648 19.1068 15.648C18.9299 15.648 19.0184 15.5601 19.1953 15.5601C19.9914 15.5601 20.5222 16.0876 21.7606 15.9118Z" fill="#FFCC00"/>
<path d="M18.2225 16.967C18.311 16.967 18.311 17.0549 18.1341 17.0549C17.9572 17.1429 17.6918 17.2308 17.338 17.4066C16.9841 17.4945 16.7188 17.5824 16.4534 17.5824C16.3649 17.5824 16.2765 17.5824 16.3649 17.4945C16.3649 17.4066 16.2765 17.4066 16.2765 17.4066C15.9226 17.5824 16.188 18.022 16.5418 18.022C16.8072 17.9341 17.0726 17.9341 17.4264 17.8461C17.7802 17.7582 18.0456 17.6703 18.311 17.4945C18.7533 17.3187 18.6648 16.7912 18.2225 16.967Z" fill="#FFCC00"/>
<path d="M42.8138 34.1098C42.7253 33.7582 42.6368 33.4944 42.1946 33.1428C41.8407 32.879 41.5753 32.879 41.2215 32.5274C41.0446 32.2637 40.9561 31.9999 40.5139 31.912C40.16 31.8241 39.8946 32.3516 39.6293 32.3516C39.187 32.4395 39.0101 32.4395 37.9486 32.2637C37.3294 32.1757 36.7986 32.0878 36.2679 32.1757C35.2948 32.3516 35.0295 32.7032 34.8525 32.3516C34.6756 31.9999 34.3218 31.3845 34.2333 31.2087V31.1208C34.4103 31.0329 34.5872 30.8571 34.6756 30.6812C34.6756 30.6812 34.6756 30.6812 34.6756 30.5933C34.1449 30.4175 33.0834 29.4505 33.0834 29.1867C33.0834 27.7801 32.1103 27.1648 31.7565 26.7252C31.1373 26.1098 30.9604 24.967 30.7835 23.7362C30.7835 23.5604 30.695 23.3845 30.695 23.2087C30.6066 23.0329 30.6066 22.8571 30.6066 22.7692C30.5181 22.6812 30.5181 22.6812 30.5181 22.7692C30.3412 22.945 30.0758 23.2087 29.5451 23.2966C28.9259 23.3845 28.1297 22.6812 28.3951 21.6263C28.3951 21.6263 28.3951 21.6263 28.3951 21.7142C28.572 22.3296 28.8374 23.2087 29.8104 22.8571C29.9874 22.7692 30.2527 22.5933 30.2527 22.4175C30.0758 22.4175 29.8104 22.5054 29.5451 22.5933C29.5451 22.5933 29.4566 22.5054 29.5451 22.5054C30.0758 22.0659 30.4296 21.9779 30.9604 21.9779C31.5796 21.89 32.1988 21.89 32.9065 21.8021H32.9949C33.0834 22.1538 33.2603 22.5054 33.6141 23.1208C33.968 23.6483 34.3218 24.5274 34.3218 24.7032C34.4103 24.879 34.2333 25.3186 34.2333 25.4944C34.2333 25.6703 34.3218 25.8461 34.3218 26.0219C34.3218 26.2856 34.2333 26.3735 34.3218 26.4615C34.4103 26.4615 34.4987 26.3735 34.5872 26.2856C34.5872 26.1977 34.6756 26.1098 34.6756 26.0219V25.934C34.6756 25.934 34.7641 25.934 34.7641 26.0219C34.8525 26.1098 34.8525 26.2856 34.941 26.3735C34.941 26.4615 35.0295 26.4615 35.1179 26.4615C35.2064 26.3735 35.2948 26.3735 35.2948 26.2856C35.5602 26.1977 35.3833 26.1098 35.5602 26.1098C35.6487 26.0219 35.7371 25.934 35.7371 25.934C35.7371 25.8461 35.7371 25.8461 35.8256 25.7582C35.914 25.5823 35.7371 25.3186 35.6487 25.0549C35.4717 24.7032 35.2948 24.7032 35.1179 24.3516C35.0295 23.912 34.7641 22.5933 34.4103 22.0659C34.4103 22.0659 34.4103 22.0659 34.4103 22.1538C34.4987 22.5054 34.5872 23.0329 34.5872 23.4725C34.6756 23.6483 34.4987 23.6483 34.4987 23.5604C34.3218 23.1208 34.2333 22.5933 34.0564 22.0659C33.8795 21.7142 33.7026 21.3626 33.8795 21.3626C33.968 21.3626 34.0564 21.4505 34.1449 21.5384C34.1449 21.5384 34.2333 21.5384 34.2333 21.4505C34.1449 21.2746 34.0564 20.923 33.8795 20.923C33.4372 20.8351 33.2603 20.8351 32.6411 20.8351C32.1103 20.8351 31.6681 20.7472 30.9604 20.8351C30.5181 20.923 29.8104 20.5714 28.8374 21.0109C28.3951 20.6593 28.2182 20.2197 28.3067 20.2197C29.0143 20.0439 29.0143 19.6043 29.1028 19.5164C29.1912 19.4285 29.4566 19.1648 29.4566 18.9889C29.4566 18.7252 29.8104 18.1977 29.3682 17.7582C29.1912 17.0549 28.572 16.7911 28.2182 16.7911C27.599 16.7032 27.1567 16.967 26.8913 17.0549C26.7144 17.1428 26.5375 17.0549 26.449 17.2307C26.2721 17.5823 26.5375 17.7582 26.5375 17.7582C26.3606 17.934 26.2721 18.1098 26.1837 18.1977C26.1837 18.2856 26.1837 18.2856 26.1837 18.2856C26.2721 18.2856 26.3606 18.2856 26.5375 18.3735C26.626 18.4615 26.7144 18.5494 26.8029 18.6373C26.8029 18.7252 26.7144 18.7252 26.7144 18.7252C26.626 18.6373 26.626 18.6373 26.5375 18.5494C26.449 18.5494 26.3606 18.6373 26.449 18.6373C26.5375 18.7252 26.5375 18.8131 26.626 18.901V18.9889C26.5375 18.901 26.449 18.901 26.449 18.901C26.449 18.901 26.3606 19.0768 26.3606 18.9889C26.2721 18.9889 26.2721 18.8131 26.2721 18.8131L26.1837 18.7252C26.1837 18.7252 26.1837 18.7252 26.1837 18.8131C26.1837 18.8131 26.1837 18.901 26.0952 18.901C26.0067 19.0768 25.8298 19.1648 25.6529 19.3406C25.5645 19.3406 25.5645 19.4285 25.5645 19.4285C25.5645 19.5164 25.5645 19.5164 25.6529 19.6043C25.8298 19.6922 25.8298 19.6922 25.8298 19.7801C25.8298 19.7801 25.8298 19.8681 25.7414 19.8681C25.7414 19.956 25.7414 19.956 25.7414 19.956C25.7414 20.0439 25.8298 20.0439 25.8298 20.1318C25.7414 20.2197 25.7414 20.2197 25.7414 20.3076C25.8298 20.3076 25.8298 20.3076 25.8298 20.3955C25.6529 20.2197 25.6529 20.2197 25.6529 20.2197C25.5645 20.3076 25.5645 20.4834 25.8298 20.5714C25.9183 20.6593 26.0952 20.6593 26.2721 20.6593C26.5375 20.6593 26.626 20.7472 26.7144 20.8351C26.8029 21.0109 26.8913 21.1867 26.9798 21.3626C27.1567 21.5384 27.2452 21.7142 27.3336 21.89C27.3336 21.9779 27.3336 22.1538 27.2452 22.0659C27.1567 21.9779 27.1567 22.0659 27.1567 22.0659C27.2452 22.945 27.599 23.2087 27.8644 22.6812C28.0413 22.3296 28.0413 21.5384 28.3951 21.1867C28.3951 21.0988 28.4836 21.0988 28.4836 21.1867C28.3067 21.8021 28.3067 22.5933 28.1297 22.8571C27.7759 23.5604 27.2452 23.3845 27.1567 23.1208C27.0682 22.7692 26.9798 22.5054 26.9798 22.1538C26.9798 22.0659 26.9798 22.0659 26.8913 22.0659C26.8029 22.0659 26.8029 22.0659 26.8029 22.1538C26.7144 22.5933 26.7144 23.0329 26.7144 23.2966C26.7144 23.7362 26.8913 24.5274 27.5105 25.0549C27.8644 25.4944 27.9528 25.8461 28.1297 26.1977C28.3067 26.5494 28.4836 27.2527 29.0143 28.1318C29.1028 28.2197 29.0143 28.2197 29.0143 28.2197C28.0413 28.7472 27.2452 29.5384 27.0682 29.7142C26.8913 29.8021 26.8913 30.0659 26.8913 30.0659C26.8913 30.0659 26.0952 30.5933 25.476 31.2966C25.1222 31.6483 24.8568 31.8241 24.7683 31.9999C24.6799 32.0878 24.6799 32.4395 24.7683 32.6153C24.8568 32.7911 24.9453 33.2307 25.1222 33.8461C25.2106 34.4615 25.476 35.2527 25.7414 36.2197C25.8298 36.3955 25.9183 36.6593 25.9183 37.0988C26.0067 37.5384 26.0067 38.0659 25.9183 38.3296C25.6529 38.8571 25.3875 39.3845 25.0337 39.8241C24.7683 40.2637 24.326 40.3516 24.2376 40.4395C24.0607 40.5274 24.1491 40.7911 24.6799 40.7032C25.2106 40.6153 25.3875 40.5274 25.6529 40.3516C25.9183 40.1757 26.0952 39.8241 26.626 39.5604C27.2452 39.2966 27.599 39.2087 27.599 38.945C27.599 38.8571 27.5105 38.5933 27.4221 38.5054C27.3336 38.3296 27.2452 38.1538 27.2452 38.0659C26.9798 37.1867 26.9798 36.3955 27.0682 35.956C27.2452 34.7252 26.9798 34.0219 26.9798 33.6703C26.8913 33.4944 26.8029 33.0549 26.8029 32.967C26.7144 32.879 26.8029 32.7911 26.8913 32.7032C27.0682 32.6153 27.599 32.3516 27.8644 32.1757V32.0878C27.1567 32.2637 26.7144 32.4395 26.449 32.6153C26.3606 32.6153 26.3606 32.5274 26.3606 32.5274C26.5375 32.2637 27.0682 31.912 27.7759 31.5604C27.8644 31.5604 27.8644 31.5604 27.8644 31.5604C28.1297 31.912 28.4836 32.3516 28.8374 32.7032H28.9259C29.0143 32.6153 29.1028 32.6153 29.1912 32.5274C29.1912 32.5274 29.1912 32.5274 29.1912 32.4395C28.8374 32.1757 28.3067 31.7362 28.1297 31.0329C28.0413 30.945 28.2182 30.945 28.2182 30.945C28.6605 31.4725 29.1028 31.912 29.4566 32.2637H29.5451C29.9874 31.912 30.5181 31.3845 30.9604 31.2087C31.3142 31.0329 32.2873 30.5933 32.818 30.0659C32.9065 29.9779 32.9065 30.0659 32.9065 30.1538C32.5526 30.945 31.6681 31.2087 31.3142 31.5604C31.2258 31.6483 31.2258 31.6483 31.3142 31.6483C31.5796 31.8241 32.0219 32.5274 32.2873 32.7911C32.5526 32.5274 33.2603 32.3516 33.791 32.0878C33.791 31.9999 33.8795 32.0878 33.791 32.0878C33.6141 32.4395 33.3488 32.5274 33.3488 32.6153C33.3488 32.6153 33.3488 32.6153 33.3488 32.7032C33.5257 32.879 33.968 33.5823 34.4987 34.0219C34.5872 34.1098 34.4987 34.1098 34.4103 34.1098C33.968 33.8461 33.3488 33.4065 32.9949 32.967C32.9949 32.967 32.9065 32.879 32.9065 32.967C32.818 32.967 32.7296 33.0549 32.6411 33.0549C33.0834 33.4944 33.791 34.1098 34.3218 34.3735C34.4987 34.4615 34.6756 34.7252 34.8525 34.6373C35.0295 34.6373 35.2948 34.6373 35.5602 34.4615C36.0025 34.2856 36.2679 34.2856 37.064 34.1977C38.037 33.6703 39.2754 33.4065 39.8062 33.4065C40.3369 33.4944 40.9561 33.6703 41.5753 33.8461C42.3715 34.0219 42.4599 34.3736 42.5484 34.4615C42.7253 34.5494 42.9022 34.4615 42.8138 34.1098ZM28.0413 20.0439C27.8644 20.1318 27.6874 19.8681 27.6874 19.6043C27.7759 19.5164 27.7759 19.5164 28.0413 19.3406C28.3951 19.1648 28.1297 18.6373 27.8644 18.7252C27.7759 18.7252 27.6874 18.8131 27.6874 18.901C27.6874 18.9889 27.6874 18.9889 27.6874 18.901C27.5105 18.8131 27.5105 18.1977 27.2452 18.0219C26.9798 17.934 26.8029 17.6703 26.8913 17.4065H26.9798C27.1567 17.6703 27.4221 17.6703 27.6874 17.7582C28.0413 17.8461 27.7759 18.1098 28.1297 18.3735C28.6605 18.6373 28.572 19.3406 28.3067 19.4285C27.9528 19.6043 28.3067 19.8681 28.0413 20.0439ZM30.0758 27.3406C30.0758 27.4285 29.9874 27.3406 30.0758 27.2527C30.3412 26.901 30.695 26.7252 30.695 26.1977C30.695 26.1098 30.695 26.1098 30.695 26.1098C30.6066 26.1977 30.5181 26.4615 30.2527 26.5494C30.1643 26.5494 30.0758 26.4615 30.1643 26.3735C30.5181 25.7582 30.3412 24.967 30.5181 24.3516C30.5181 24.1757 30.6066 24.0878 30.6066 24.2637C30.695 24.967 31.0489 26.1977 31.3142 26.6373V26.7252C31.2258 26.901 30.6066 27.0768 30.0758 27.3406ZM38.9216 33.0549C38.5678 33.1428 37.9486 33.2307 37.5063 33.2307C37.1525 33.4065 36.2679 33.4944 36.1794 33.4944C36.0025 33.5823 36.0025 33.4065 36.091 33.4065C36.2679 33.3186 36.5332 33.3186 36.7986 33.2307C37.3294 33.0549 38.3024 32.879 39.0101 33.0549C39.0985 33.0549 39.0985 33.0549 38.9216 33.0549Z" fill="#FFCC00"/>
</g>
<defs>
<clipPath id="clip0_2210_32511">
<rect width="122.957" height="56" fill="white"/>
</clipPath>
</defs>
</svg>
