<svg width="757" height="800" viewBox="0 0 757 800" fill="none" xmlns="http://www.w3.org/2000/svg">
<path d="M419.435 243.951C474.196 243.951 522.337 271.931 550.32 314.352L590.638 287.877C552.727 231.014 489.541 197.017 421.24 197.017C309.311 197.017 217.842 288.178 217.842 400.398C217.842 512.619 309.01 603.478 421.24 603.478C489.541 603.478 552.727 569.481 590.638 512.619L550.621 486.143C522.638 528.564 474.497 556.544 419.736 556.544C333.382 556.544 263.275 486.444 263.275 400.097C262.674 314.052 332.78 243.951 419.435 243.951Z" fill="#051B3F"/>
<path d="M422.443 696.444C259.664 696.444 126.974 564.066 126.974 401C126.974 238.235 259.363 105.556 422.443 105.556C521.434 105.556 613.505 154.897 668.266 237.332L679.399 254.18L591.24 312.246L580.107 295.398C544.602 241.244 484.425 209.052 420.036 209.052C314.425 209.052 228.372 295.097 228.372 400.699C228.372 506.301 314.425 592.347 420.036 592.347C484.726 592.347 544.602 560.155 580.107 506L591.24 489.152L679.399 547.218L668.266 564.066C613.204 647.103 521.434 696.444 422.443 696.444Z" fill="#1A629D"/>
<path d="M686.018 576.1C627.044 664.854 528.354 717.805 422.142 717.805C247.628 717.805 105.611 575.799 105.611 401.301C105.611 226.802 247.628 84.7966 422.142 84.7966C528.354 84.7966 627.044 137.748 686.018 226.501L697.15 243.35L782 187.691L770.867 170.842C692.938 51.702 561.752 -19 420.035 -19C188.354 -19 0 169.338 0 401C0 632.662 188.354 821 420.035 821C561.752 821 692.938 750.298 770.867 631.759L782 614.911L697.15 559.252L686.018 576.1Z" fill="#1A629D"/>
</svg>
