<svg width="40" height="52" viewBox="0 0 40 52" fill="none" xmlns="http://www.w3.org/2000/svg">
<g clip-path="url(#clip0_4251_67351)">
<path d="M4.04796 31.8076L18.2316 50.4314C18.9728 51.3994 20.3601 51.5879 21.3357 50.8588C21.5004 50.7394 21.6398 50.5948 21.7665 50.4314L35.9502 31.8076C42.6144 23.0645 40.8723 10.6193 32.0606 4.01328C23.2488 -2.59274 10.7059 -0.864236 4.04796 7.87884C-1.34932 14.9563 -1.34932 24.7239 4.04796 31.8076ZM19.9991 9.35592C25.6814 9.35592 30.2932 13.9317 30.2932 19.5698C30.2932 25.2078 25.6814 29.7837 19.9991 29.7837C14.3167 29.7837 9.70496 25.2078 9.70496 19.5698C9.71763 13.9317 14.3167 9.36221 19.9991 9.35592Z" fill="#212121"/>
</g>
<defs>
<clipPath id="clip0_4251_67351">
<rect width="40" height="51.3024" fill="white"/>
</clipPath>
</defs>
</svg>
